<svg width="500" height="500" viewBox="0 0 500 500" fill="none" xmlns="http://www.w3.org/2000/svg">
<rect x="268" y="163.362" width="41.1165" height="182.952" rx="7" transform="rotate(-6.08929 268 163.362)" fill="#DC6F4A"/>
<rect x="323" y="208.518" width="52.0136" height="137.325" rx="8" transform="rotate(-6.08929 323 208.518)" fill="white"/>
<path d="M167.792 330V326.608H170.48C171.12 326.608 171.675 326.523 172.144 326.352C172.656 326.139 173.04 325.733 173.296 325.136C173.595 324.539 173.744 323.643 173.744 322.448V291.856C173.744 290.619 173.595 289.723 173.296 289.168C173.04 288.571 172.656 288.187 172.144 288.016C171.675 287.803 171.12 287.696 170.48 287.696H167.792V284.304H189.872V287.696H187.184C186.587 287.696 186.032 287.781 185.52 287.952C185.051 288.123 184.667 288.485 184.368 289.04C184.069 289.595 183.92 290.448 183.92 291.6V326.096H195.824C196.805 326.096 197.637 325.883 198.32 325.456C199.045 325.029 199.621 324.411 200.048 323.6C200.517 322.747 200.88 321.723 201.136 320.528L202.16 315.728H205.744L205.296 330H167.792ZM209.667 330V326.608H212.355C212.995 326.608 213.55 326.523 214.019 326.352C214.531 326.139 214.915 325.733 215.171 325.136C215.47 324.539 215.619 323.643 215.619 322.448V291.856C215.619 290.619 215.47 289.723 215.171 289.168C214.915 288.571 214.531 288.187 214.019 288.016C213.55 287.803 212.995 287.696 212.355 287.696H209.667V284.304H231.747V287.696H229.059C228.462 287.696 227.907 287.803 227.395 288.016C226.883 288.187 226.478 288.571 226.179 289.168C225.923 289.723 225.795 290.619 225.795 291.856V322.448C225.795 323.643 225.923 324.539 226.179 325.136C226.478 325.733 226.883 326.139 227.395 326.352C227.907 326.523 228.462 326.608 229.059 326.608H231.747V330H209.667ZM235.355 330V326.608H237.979C238.619 326.608 239.173 326.523 239.643 326.352C240.155 326.139 240.56 325.733 240.859 325.136C241.157 324.539 241.307 323.643 241.307 322.448V291.792C241.307 290.64 241.157 289.787 240.859 289.232C240.56 288.635 240.155 288.229 239.643 288.016C239.131 287.803 238.576 287.696 237.979 287.696H235.355V284.304H254.043C260.144 284.304 264.709 285.243 267.739 287.12C270.811 288.997 272.347 291.941 272.347 295.952C272.347 297.829 272.005 299.408 271.323 300.688C270.64 301.925 269.701 302.949 268.507 303.76C267.312 304.528 265.904 305.168 264.283 305.68V306C266.245 306.469 267.973 307.216 269.467 308.24C270.96 309.264 272.133 310.544 272.987 312.08C273.84 313.573 274.267 315.365 274.267 317.456C274.267 321.637 272.731 324.773 269.659 326.864C266.587 328.955 262.021 330 255.963 330H235.355ZM255.643 326.096C258.501 326.096 260.528 325.435 261.723 324.112C262.917 322.789 263.515 320.507 263.515 317.264C263.515 315.173 263.28 313.445 262.811 312.08C262.341 310.715 261.531 309.712 260.379 309.072C259.269 308.389 257.733 308.048 255.771 308.048H251.419V326.096H255.643ZM253.851 304.144C255.856 304.144 257.413 303.867 258.523 303.312C259.632 302.757 260.421 301.883 260.891 300.688C261.36 299.451 261.595 297.872 261.595 295.952C261.595 293.051 260.997 291.045 259.803 289.936C258.651 288.784 256.624 288.208 253.723 288.208H251.419V304.144H253.851Z" fill="white"/>
<path d="M112.24 241V236.76H115.6C116.347 236.76 117.013 236.653 117.6 236.44C118.24 236.227 118.747 235.773 119.12 235.08C119.493 234.387 119.68 233.347 119.68 231.96V193.32C119.68 191.773 119.493 190.653 119.12 189.96C118.8 189.213 118.32 188.733 117.68 188.52C117.093 188.253 116.4 188.12 115.6 188.12H112.24V183.88H156.64L156.96 198.6H151.36L150.96 194.84C150.853 193.507 150.587 192.413 150.16 191.56C149.787 190.653 149.253 189.96 148.56 189.48C147.867 189 146.96 188.76 145.84 188.76H132.4V208.76H151.36V213.56H132.4V236.12H148.4C149.467 236.12 150.347 235.853 151.04 235.32C151.733 234.787 152.267 234.067 152.64 233.16C153.067 232.253 153.36 231.213 153.52 230.04L154.16 226.28H159.68L159.12 241H112.24ZM182.266 241.8C178.799 241.8 175.839 241.027 173.386 239.48C170.932 237.933 169.066 235.533 167.786 232.28C166.559 228.973 165.946 224.76 165.946 219.64C165.946 214.467 166.559 210.227 167.786 206.92C169.066 203.613 170.906 201.16 173.306 199.56C175.759 197.96 178.692 197.16 182.106 197.16C185.092 197.16 187.546 197.773 189.466 199C191.386 200.173 192.906 201.693 194.026 203.56H194.586C194.479 202.547 194.372 201.453 194.266 200.28C194.159 199.107 194.079 197.96 194.026 196.84C193.972 195.667 193.946 194.653 193.946 193.8V189.4C193.946 187.907 193.652 186.813 193.066 186.12C192.479 185.427 191.679 184.973 190.666 184.76C189.706 184.547 188.639 184.44 187.466 184.44H186.826V180.2H206.106V231.16C206.106 232.76 206.399 233.96 206.986 234.76C207.626 235.56 208.452 236.093 209.466 236.36C210.479 236.627 211.572 236.76 212.746 236.76H213.066V241H197.546L195.306 234.76H194.586C193.412 236.893 191.839 238.6 189.866 239.88C187.946 241.16 185.412 241.8 182.266 241.8ZM185.706 235.8C188.852 235.8 191.012 234.467 192.186 231.8C193.359 229.08 193.946 224.973 193.946 219.48C193.946 215.96 193.679 212.973 193.146 210.52C192.666 208.067 191.839 206.227 190.666 205C189.492 203.72 187.839 203.08 185.706 203.08C183.946 203.08 182.506 203.72 181.386 205C180.319 206.28 179.519 208.147 178.986 210.6C178.506 213 178.266 215.987 178.266 219.56C178.266 223.187 178.506 226.2 178.986 228.6C179.519 231 180.319 232.813 181.386 234.04C182.506 235.213 183.946 235.8 185.706 235.8ZM234.859 241.8C230.699 241.8 227.499 240.52 225.259 237.96C223.019 235.347 221.899 231.347 221.899 225.96V208.04C221.899 206.493 221.712 205.32 221.339 204.52C220.965 203.667 220.379 203.107 219.579 202.84C218.779 202.52 217.739 202.36 216.459 202.36H216.299V198.12H234.059V223.72C234.059 226.013 234.219 228.013 234.539 229.72C234.912 231.373 235.552 232.68 236.459 233.64C237.365 234.547 238.592 235 240.139 235C241.845 235 243.232 234.52 244.299 233.56C245.365 232.547 246.139 231.133 246.619 229.32C247.152 227.453 247.419 225.293 247.419 222.84V207.48C247.419 205.933 247.152 204.813 246.619 204.12C246.085 203.373 245.392 202.893 244.539 202.68C243.685 202.467 242.725 202.36 241.659 202.36H241.419V198.12H259.579V231.72C259.579 233.267 259.792 234.413 260.219 235.16C260.699 235.853 261.339 236.307 262.139 236.52C262.992 236.68 263.925 236.76 264.939 236.76H265.579V241H249.659L247.899 235.32H247.499C246.699 236.707 245.819 237.827 244.859 238.68C243.952 239.533 242.965 240.2 241.899 240.68C240.832 241.107 239.712 241.4 238.539 241.56C237.365 241.72 236.139 241.8 234.859 241.8Z" fill="white"/>
</svg>
