<svg width="500" height="500" viewBox="0 0 500 500" fill="none" xmlns="http://www.w3.org/2000/svg">
<rect x="248.192" y="147.373" width="77.1165" height="218.952" rx="25" transform="rotate(-6.08929 248.192 147.373)" fill="#DC6F4A" stroke="#2B4343" stroke-width="36" stroke-linejoin="round"/>
<rect x="303.192" y="192.528" width="88.0136" height="173.325" rx="26" transform="rotate(-6.08929 303.192 192.528)" fill="white" stroke="#2B4343" stroke-width="36" stroke-linejoin="round"/>
<mask id="path-3-outside-1_210_62" maskUnits="userSpaceOnUse" x="131" y="248" width="180" height="118" fill="black">
<rect fill="white" x="131" y="248" width="180" height="118"/>
<path d="M167.792 330V326.608H170.48C171.12 326.608 171.675 326.523 172.144 326.352C172.656 326.139 173.04 325.733 173.296 325.136C173.595 324.539 173.744 323.643 173.744 322.448V291.856C173.744 290.619 173.595 289.723 173.296 289.168C173.04 288.571 172.656 288.187 172.144 288.016C171.675 287.803 171.12 287.696 170.48 287.696H167.792V284.304H189.872V287.696H187.184C186.587 287.696 186.032 287.781 185.52 287.952C185.051 288.123 184.667 288.485 184.368 289.04C184.069 289.595 183.92 290.448 183.92 291.6V326.096H195.824C196.805 326.096 197.637 325.883 198.32 325.456C199.045 325.029 199.621 324.411 200.048 323.6C200.517 322.747 200.88 321.723 201.136 320.528L202.16 315.728H205.744L205.296 330H167.792ZM209.667 330V326.608H212.355C212.995 326.608 213.55 326.523 214.019 326.352C214.531 326.139 214.915 325.733 215.171 325.136C215.47 324.539 215.619 323.643 215.619 322.448V291.856C215.619 290.619 215.47 289.723 215.171 289.168C214.915 288.571 214.531 288.187 214.019 288.016C213.55 287.803 212.995 287.696 212.355 287.696H209.667V284.304H231.747V287.696H229.059C228.462 287.696 227.907 287.803 227.395 288.016C226.883 288.187 226.478 288.571 226.179 289.168C225.923 289.723 225.795 290.619 225.795 291.856V322.448C225.795 323.643 225.923 324.539 226.179 325.136C226.478 325.733 226.883 326.139 227.395 326.352C227.907 326.523 228.462 326.608 229.059 326.608H231.747V330H209.667ZM235.355 330V326.608H237.979C238.619 326.608 239.173 326.523 239.643 326.352C240.155 326.139 240.56 325.733 240.859 325.136C241.157 324.539 241.307 323.643 241.307 322.448V291.792C241.307 290.64 241.157 289.787 240.859 289.232C240.56 288.635 240.155 288.229 239.643 288.016C239.131 287.803 238.576 287.696 237.979 287.696H235.355V284.304H254.043C260.144 284.304 264.709 285.243 267.739 287.12C270.811 288.997 272.347 291.941 272.347 295.952C272.347 297.829 272.005 299.408 271.323 300.688C270.64 301.925 269.701 302.949 268.507 303.76C267.312 304.528 265.904 305.168 264.283 305.68V306C266.245 306.469 267.973 307.216 269.467 308.24C270.96 309.264 272.133 310.544 272.987 312.08C273.84 313.573 274.267 315.365 274.267 317.456C274.267 321.637 272.731 324.773 269.659 326.864C266.587 328.955 262.021 330 255.963 330H235.355ZM255.643 326.096C258.501 326.096 260.528 325.435 261.723 324.112C262.917 322.789 263.515 320.507 263.515 317.264C263.515 315.173 263.28 313.445 262.811 312.08C262.341 310.715 261.531 309.712 260.379 309.072C259.269 308.389 257.733 308.048 255.771 308.048H251.419V326.096H255.643ZM253.851 304.144C255.856 304.144 257.413 303.867 258.523 303.312C259.632 302.757 260.421 301.883 260.891 300.688C261.36 299.451 261.595 297.872 261.595 295.952C261.595 293.051 260.997 291.045 259.803 289.936C258.651 288.784 256.624 288.208 253.723 288.208H251.419V304.144H253.851Z"/>
</mask>
<path d="M167.792 330V326.608H170.48C171.12 326.608 171.675 326.523 172.144 326.352C172.656 326.139 173.04 325.733 173.296 325.136C173.595 324.539 173.744 323.643 173.744 322.448V291.856C173.744 290.619 173.595 289.723 173.296 289.168C173.04 288.571 172.656 288.187 172.144 288.016C171.675 287.803 171.12 287.696 170.48 287.696H167.792V284.304H189.872V287.696H187.184C186.587 287.696 186.032 287.781 185.52 287.952C185.051 288.123 184.667 288.485 184.368 289.04C184.069 289.595 183.92 290.448 183.92 291.6V326.096H195.824C196.805 326.096 197.637 325.883 198.32 325.456C199.045 325.029 199.621 324.411 200.048 323.6C200.517 322.747 200.88 321.723 201.136 320.528L202.16 315.728H205.744L205.296 330H167.792ZM209.667 330V326.608H212.355C212.995 326.608 213.55 326.523 214.019 326.352C214.531 326.139 214.915 325.733 215.171 325.136C215.47 324.539 215.619 323.643 215.619 322.448V291.856C215.619 290.619 215.47 289.723 215.171 289.168C214.915 288.571 214.531 288.187 214.019 288.016C213.55 287.803 212.995 287.696 212.355 287.696H209.667V284.304H231.747V287.696H229.059C228.462 287.696 227.907 287.803 227.395 288.016C226.883 288.187 226.478 288.571 226.179 289.168C225.923 289.723 225.795 290.619 225.795 291.856V322.448C225.795 323.643 225.923 324.539 226.179 325.136C226.478 325.733 226.883 326.139 227.395 326.352C227.907 326.523 228.462 326.608 229.059 326.608H231.747V330H209.667ZM235.355 330V326.608H237.979C238.619 326.608 239.173 326.523 239.643 326.352C240.155 326.139 240.56 325.733 240.859 325.136C241.157 324.539 241.307 323.643 241.307 322.448V291.792C241.307 290.64 241.157 289.787 240.859 289.232C240.56 288.635 240.155 288.229 239.643 288.016C239.131 287.803 238.576 287.696 237.979 287.696H235.355V284.304H254.043C260.144 284.304 264.709 285.243 267.739 287.12C270.811 288.997 272.347 291.941 272.347 295.952C272.347 297.829 272.005 299.408 271.323 300.688C270.64 301.925 269.701 302.949 268.507 303.76C267.312 304.528 265.904 305.168 264.283 305.68V306C266.245 306.469 267.973 307.216 269.467 308.24C270.96 309.264 272.133 310.544 272.987 312.08C273.84 313.573 274.267 315.365 274.267 317.456C274.267 321.637 272.731 324.773 269.659 326.864C266.587 328.955 262.021 330 255.963 330H235.355ZM255.643 326.096C258.501 326.096 260.528 325.435 261.723 324.112C262.917 322.789 263.515 320.507 263.515 317.264C263.515 315.173 263.28 313.445 262.811 312.08C262.341 310.715 261.531 309.712 260.379 309.072C259.269 308.389 257.733 308.048 255.771 308.048H251.419V326.096H255.643ZM253.851 304.144C255.856 304.144 257.413 303.867 258.523 303.312C259.632 302.757 260.421 301.883 260.891 300.688C261.36 299.451 261.595 297.872 261.595 295.952C261.595 293.051 260.997 291.045 259.803 289.936C258.651 288.784 256.624 288.208 253.723 288.208H251.419V304.144H253.851Z" fill="white"/>
<path d="M167.792 330H131.792C131.792 349.882 147.91 366 167.792 366V330ZM167.792 326.608V290.608C147.91 290.608 131.792 306.726 131.792 326.608H167.792ZM172.144 326.352L184.447 360.185C184.966 359.996 185.48 359.795 185.99 359.583L172.144 326.352ZM173.296 325.136L141.097 309.036C140.781 309.667 140.485 310.307 140.207 310.955L173.296 325.136ZM173.296 289.168L140.207 303.349C140.628 304.331 141.092 305.295 141.599 306.236L173.296 289.168ZM172.144 288.016L157.247 320.789C158.393 321.31 159.566 321.771 160.76 322.169L172.144 288.016ZM167.792 287.696H131.792C131.792 307.578 147.91 323.696 167.792 323.696V287.696ZM167.792 284.304V248.304C147.91 248.304 131.792 264.422 131.792 284.304H167.792ZM189.872 284.304H225.872C225.872 264.422 209.754 248.304 189.872 248.304V284.304ZM189.872 287.696V323.696C209.754 323.696 225.872 307.578 225.872 287.696H189.872ZM185.52 287.952L174.136 253.799C173.828 253.902 173.522 254.009 173.217 254.119L185.52 287.952ZM183.92 326.096H147.92C147.92 345.978 164.038 362.096 183.92 362.096V326.096ZM198.32 325.456L180.067 294.426C179.789 294.59 179.514 294.757 179.24 294.928L198.32 325.456ZM200.048 323.6L168.504 306.251C168.398 306.444 168.294 306.638 168.191 306.833L200.048 323.6ZM201.136 320.528L236.337 328.071C236.339 328.06 236.341 328.05 236.344 328.039L201.136 320.528ZM202.16 315.728V279.728C185.172 279.728 170.497 291.603 166.952 308.217L202.16 315.728ZM205.744 315.728L241.726 316.857C242.032 307.119 238.377 297.672 231.596 290.675C224.815 283.678 215.488 279.728 205.744 279.728V315.728ZM205.296 330V366C224.739 366 240.668 350.562 241.278 331.129L205.296 330ZM167.792 330H203.792V326.608H167.792H131.792V330H167.792ZM167.792 326.608V362.608H170.48V326.608V290.608H167.792V326.608ZM170.48 326.608V362.608C174.191 362.608 179.1 362.129 184.447 360.185L172.144 326.352L159.841 292.519C164.249 290.917 168.049 290.608 170.48 290.608V326.608ZM172.144 326.352L185.99 359.583C196.624 355.152 203.118 346.939 206.385 339.317L173.296 325.136L140.207 310.955C142.962 304.527 148.688 297.125 158.298 293.121L172.144 326.352ZM173.296 325.136L205.495 341.236C209.555 333.116 209.744 325.481 209.744 322.448H173.744H137.744C137.744 321.642 137.787 320.104 138.122 318.098C138.44 316.188 139.181 312.867 141.097 309.036L173.296 325.136ZM173.744 322.448H209.744V291.856H173.744H137.744V322.448H173.744ZM173.744 291.856H209.744C209.744 289.364 209.723 280.884 204.993 272.1L173.296 289.168L141.599 306.236C139.244 301.862 138.436 298.056 138.122 296.174C137.778 294.11 137.744 292.562 137.744 291.856H173.744ZM173.296 289.168L206.385 274.987C202.98 267.041 195.774 257.945 183.528 253.863L172.144 288.016L160.76 322.169C155.68 320.475 151.094 317.622 147.36 313.888C143.744 310.272 141.536 306.451 140.207 303.349L173.296 289.168ZM172.144 288.016L187.041 255.243C180.907 252.454 175.052 251.696 170.48 251.696V287.696V323.696C167.188 323.696 162.443 323.151 157.247 320.789L172.144 288.016ZM170.48 287.696V251.696H167.792V287.696V323.696H170.48V287.696ZM167.792 287.696H203.792V284.304H167.792H131.792V287.696H167.792ZM167.792 284.304V320.304H189.872V284.304V248.304H167.792V284.304ZM189.872 284.304H153.872V287.696H189.872H225.872V284.304H189.872ZM189.872 287.696V251.696H187.184V287.696V323.696H189.872V287.696ZM187.184 287.696V251.696C183.127 251.696 178.688 252.282 174.136 253.799L185.52 287.952L196.904 322.105C193.376 323.281 190.046 323.696 187.184 323.696V287.696ZM185.52 287.952L173.217 254.119C162.443 258.037 156.025 265.744 152.671 271.972L184.368 289.04L216.065 306.108C213.309 311.226 207.658 318.208 197.823 321.785L185.52 287.952ZM184.368 289.04L152.671 271.972C148.072 280.513 147.92 288.67 147.92 291.6H183.92H219.92C219.92 292.47 219.872 294.137 219.493 296.302C219.134 298.354 218.286 301.982 216.065 306.108L184.368 289.04ZM183.92 291.6H147.92V326.096H183.92H219.92V291.6H183.92ZM183.92 326.096V362.096H195.824V326.096V290.096H183.92V326.096ZM195.824 326.096V362.096C202.07 362.096 209.857 360.698 217.4 355.984L198.32 325.456L179.24 294.928C185.418 291.067 191.541 290.096 195.824 290.096V326.096ZM198.32 325.456L216.573 356.486C223.58 352.364 228.645 346.56 231.905 340.367L200.048 323.6L168.191 306.833C170.597 302.261 174.511 297.695 180.067 294.426L198.32 325.456ZM200.048 323.6L231.592 340.949C234.117 336.357 235.524 331.864 236.337 328.071L201.136 320.528L165.935 312.985C166.236 311.581 166.917 309.136 168.504 306.251L200.048 323.6ZM201.136 320.528L236.344 328.039L237.368 323.239L202.16 315.728L166.952 308.217L165.928 313.017L201.136 320.528ZM202.16 315.728V351.728H205.744V315.728V279.728H202.16V315.728ZM205.744 315.728L169.762 314.599L169.314 328.871L205.296 330L241.278 331.129L241.726 316.857L205.744 315.728ZM205.296 330V294H167.792V330V366H205.296V330ZM209.667 330H173.667C173.667 349.882 189.785 366 209.667 366V330ZM209.667 326.608V290.608C189.785 290.608 173.667 306.726 173.667 326.608H209.667ZM214.019 326.352L226.322 360.185C226.841 359.996 227.355 359.795 227.865 359.583L214.019 326.352ZM215.171 325.136L182.972 309.036C182.656 309.667 182.36 310.307 182.082 310.955L215.171 325.136ZM215.171 289.168L182.082 303.349C182.503 304.331 182.967 305.295 183.474 306.236L215.171 289.168ZM214.019 288.016L199.122 320.789C200.268 321.31 201.441 321.771 202.635 322.169L214.019 288.016ZM209.667 287.696H173.667C173.667 307.578 189.785 323.696 209.667 323.696V287.696ZM209.667 284.304V248.304C189.785 248.304 173.667 264.422 173.667 284.304H209.667ZM231.747 284.304H267.747C267.747 264.422 251.629 248.304 231.747 248.304V284.304ZM231.747 287.696V323.696C251.629 323.696 267.747 307.578 267.747 287.696H231.747ZM227.395 288.016L238.779 322.169C239.611 321.891 240.432 321.584 241.241 321.247L227.395 288.016ZM226.179 289.168L193.98 273.068C193.812 273.404 193.65 273.742 193.492 274.082L226.179 289.168ZM226.179 325.136L193.09 339.317C193.368 339.965 193.664 340.605 193.98 341.236L226.179 325.136ZM227.395 326.352L213.549 359.583C214.358 359.92 215.179 360.227 216.011 360.505L227.395 326.352ZM231.747 326.608H267.747C267.747 306.726 251.629 290.608 231.747 290.608V326.608ZM231.747 330V366C251.629 366 267.747 349.882 267.747 330H231.747ZM209.667 330H245.667V326.608H209.667H173.667V330H209.667ZM209.667 326.608V362.608H212.355V326.608V290.608H209.667V326.608ZM212.355 326.608V362.608C216.066 362.608 220.975 362.129 226.322 360.185L214.019 326.352L201.716 292.519C206.124 290.917 209.924 290.608 212.355 290.608V326.608ZM214.019 326.352L227.865 359.583C238.499 355.152 244.993 346.939 248.26 339.317L215.171 325.136L182.082 310.955C184.837 304.527 190.563 297.125 200.173 293.121L214.019 326.352ZM215.171 325.136L247.37 341.236C251.43 333.116 251.619 325.481 251.619 322.448H215.619H179.619C179.619 321.642 179.662 320.104 179.997 318.098C180.315 316.188 181.056 312.867 182.972 309.036L215.171 325.136ZM215.619 322.448H251.619V291.856H215.619H179.619V322.448H215.619ZM215.619 291.856H251.619C251.619 289.364 251.598 280.884 246.868 272.1L215.171 289.168L183.474 306.236C181.119 301.862 180.311 298.056 179.997 296.174C179.653 294.11 179.619 292.562 179.619 291.856H215.619ZM215.171 289.168L248.26 274.987C244.855 267.041 237.649 257.945 225.403 253.863L214.019 288.016L202.635 322.169C197.555 320.475 192.969 317.622 189.235 313.888C185.619 310.272 183.411 306.451 182.082 303.349L215.171 289.168ZM214.019 288.016L228.916 255.243C222.782 252.454 216.927 251.696 212.355 251.696V287.696V323.696C209.063 323.696 204.318 323.151 199.122 320.789L214.019 288.016ZM212.355 287.696V251.696H209.667V287.696V323.696H212.355V287.696ZM209.667 287.696H245.667V284.304H209.667H173.667V287.696H209.667ZM209.667 284.304V320.304H231.747V284.304V248.304H209.667V284.304ZM231.747 284.304H195.747V287.696H231.747H267.747V284.304H231.747ZM231.747 287.696V251.696H229.059V287.696V323.696H231.747V287.696ZM229.059 287.696V251.696C224.078 251.696 218.777 252.607 213.549 254.785L227.395 288.016L241.241 321.247C237.037 322.998 232.845 323.696 229.059 323.696V287.696ZM227.395 288.016L216.011 253.863C204.391 257.737 197.474 266.08 193.98 273.068L226.179 289.168L258.378 305.268C255.482 311.061 249.375 318.637 238.779 322.169L227.395 288.016ZM226.179 289.168L193.492 274.082C189.783 282.118 189.795 289.675 189.795 291.856H225.795H261.795C261.795 292.369 261.775 293.625 261.529 295.347C261.313 296.861 260.722 300.232 258.866 304.254L226.179 289.168ZM225.795 291.856H189.795V322.448H225.795H261.795V291.856H225.795ZM225.795 322.448H189.795C189.795 325.115 189.918 331.915 193.09 339.317L226.179 325.136L259.268 310.955C260.765 314.448 261.307 317.37 261.529 318.925C261.768 320.598 261.795 321.846 261.795 322.448H225.795ZM226.179 325.136L193.98 341.236C197.317 347.911 203.51 355.4 213.549 359.583L227.395 326.352L241.241 293.121C250.256 296.878 255.638 303.556 258.378 309.036L226.179 325.136ZM227.395 326.352L216.011 360.505C220.563 362.022 225.002 362.608 229.059 362.608V326.608V290.608C231.921 290.608 235.251 291.023 238.779 292.199L227.395 326.352ZM229.059 326.608V362.608H231.747V326.608V290.608H229.059V326.608ZM231.747 326.608H195.747V330H231.747H267.747V326.608H231.747ZM231.747 330V294H209.667V330V366H231.747V330ZM235.355 330H199.355C199.355 349.882 215.472 366 235.355 366V330ZM235.355 326.608V290.608C215.472 290.608 199.355 306.726 199.355 326.608H235.355ZM239.643 326.352L251.945 360.185C252.464 359.996 252.979 359.795 253.489 359.583L239.643 326.352ZM240.859 325.136L208.659 309.036L208.659 309.036L240.859 325.136ZM240.859 289.232L208.659 305.332C208.822 305.657 208.989 305.98 209.162 306.3L240.859 289.232ZM235.355 287.696H199.355C199.355 307.578 215.472 323.696 235.355 323.696V287.696ZM235.355 284.304V248.304C215.472 248.304 199.355 264.422 199.355 284.304H235.355ZM267.739 287.12L248.775 317.72C248.839 317.76 248.902 317.799 248.966 317.838L267.739 287.12ZM271.323 300.688L302.843 318.079C302.926 317.929 303.007 317.78 303.087 317.629L271.323 300.688ZM268.507 303.76L287.974 334.042C288.225 333.881 288.474 333.717 288.721 333.549L268.507 303.76ZM264.283 305.68L253.442 271.351C238.465 276.081 228.283 289.974 228.283 305.68H264.283ZM264.283 306H228.283C228.283 322.657 239.71 337.139 255.91 341.013L264.283 306ZM269.467 308.24L289.826 278.55L289.826 278.55L269.467 308.24ZM272.987 312.08L241.517 329.563C241.587 329.69 241.658 329.815 241.73 329.941L272.987 312.08ZM269.659 326.864L249.404 297.102L249.404 297.102L269.659 326.864ZM261.723 324.112L235.007 299.982L235.007 299.982L261.723 324.112ZM262.811 312.08L228.766 323.783L228.766 323.783L262.811 312.08ZM260.379 309.072L241.511 339.732C241.966 340.012 242.428 340.282 242.895 340.542L260.379 309.072ZM251.419 308.048V272.048C231.536 272.048 215.419 288.166 215.419 308.048H251.419ZM251.419 326.096H215.419C215.419 345.978 231.536 362.096 251.419 362.096V326.096ZM258.523 303.312L242.423 271.113L242.423 271.113L258.523 303.312ZM260.891 300.688L294.398 313.851C294.449 313.72 294.5 313.588 294.55 313.456L260.891 300.688ZM259.803 289.936L234.347 315.392C234.661 315.706 234.981 316.014 235.306 316.317L259.803 289.936ZM251.419 288.208V252.208C231.536 252.208 215.419 268.326 215.419 288.208H251.419ZM251.419 304.144H215.419C215.419 324.026 231.536 340.144 251.419 340.144V304.144ZM235.355 330H271.355V326.608H235.355H199.355V330H235.355ZM235.355 326.608V362.608H237.979V326.608V290.608H235.355V326.608ZM237.979 326.608V362.608C241.69 362.608 246.599 362.129 251.945 360.185L239.643 326.352L227.34 292.519C231.748 290.917 235.547 290.608 237.979 290.608V326.608ZM239.643 326.352L253.489 359.583C263.528 355.4 269.72 347.911 273.058 341.236L240.859 325.136L208.659 309.036C211.399 303.556 216.781 296.878 225.796 293.121L239.643 326.352ZM240.859 325.136L273.058 341.236C277.118 333.116 277.307 325.481 277.307 322.448H241.307H205.307C205.307 321.642 205.35 320.104 205.684 318.098C206.003 316.188 206.744 312.867 208.659 309.036L240.859 325.136ZM241.307 322.448H277.307V291.792H241.307H205.307V322.448H241.307ZM241.307 291.792H277.307C277.307 288.862 277.154 280.705 272.555 272.164L240.859 289.232L209.162 306.3C206.94 302.174 206.093 298.546 205.733 296.494C205.355 294.329 205.307 292.662 205.307 291.792H241.307ZM240.859 289.232L273.058 273.132C269.72 266.457 263.528 258.968 253.489 254.785L239.643 288.016L225.796 321.247C216.781 317.49 211.399 310.812 208.659 305.332L240.859 289.232ZM239.643 288.016L253.489 254.785C248.261 252.607 242.959 251.696 237.979 251.696V287.696V323.696C234.192 323.696 230 322.998 225.796 321.247L239.643 288.016ZM237.979 287.696V251.696H235.355V287.696V323.696H237.979V287.696ZM235.355 287.696H271.355V284.304H235.355H199.355V287.696H235.355ZM235.355 284.304V320.304H254.043V284.304V248.304H235.355V284.304ZM254.043 284.304V320.304C255.359 320.304 255.496 320.415 254.792 320.27C254.135 320.135 251.777 319.581 248.775 317.72L267.739 287.12L286.702 256.52C275.229 249.41 262.636 248.304 254.043 248.304V284.304ZM267.739 287.12L248.966 317.838C245.411 315.666 241.786 312.196 239.277 307.388C236.861 302.756 236.347 298.551 236.347 295.952H272.347H308.347C308.347 281.109 301.665 265.663 286.511 256.402L267.739 287.12ZM272.347 295.952H236.347C236.347 293.607 236.762 288.99 239.558 283.747L271.323 300.688L303.087 317.629C307.249 309.826 308.347 302.052 308.347 295.952H272.347ZM271.323 300.688L239.802 283.297C241.92 279.459 244.9 276.273 248.292 273.971L268.507 303.76L288.721 333.549C294.503 329.625 299.36 324.392 302.843 318.079L271.323 300.688ZM268.507 303.76L249.039 273.478C250.994 272.221 252.599 271.617 253.442 271.351L264.283 305.68L275.123 340.009C279.209 338.719 283.629 336.835 287.974 334.042L268.507 303.76ZM264.283 305.68H228.283V306H264.283H300.283V305.68H264.283ZM264.283 306L255.91 341.013C254.074 340.574 251.643 339.669 249.107 337.93L269.467 308.24L289.826 278.55C284.303 274.763 278.416 272.365 272.655 270.987L264.283 306ZM269.467 308.24L249.107 337.93C246.147 335.9 243.456 333.053 241.517 329.563L272.987 312.08L304.456 294.597C300.811 288.035 295.773 282.628 289.826 278.55L269.467 308.24ZM272.987 312.08L241.73 329.941C238.869 324.935 238.267 320.285 238.267 317.456H274.267H310.267C310.267 310.445 308.81 302.211 304.243 294.219L272.987 312.08ZM274.267 317.456H238.267C238.267 315.129 238.707 311.35 240.784 307.109C242.942 302.704 246.117 299.339 249.404 297.102L269.659 326.864L289.913 356.626C304.193 346.907 310.267 331.81 310.267 317.456H274.267ZM269.659 326.864L249.404 297.102C252.4 295.064 254.901 294.352 255.895 294.124C256.886 293.897 257.031 294 255.963 294V330V366C265.106 366 278.177 364.612 289.913 356.626L269.659 326.864ZM255.963 330V294H235.355V330V366H255.963V330ZM255.643 326.096V362.096C262.678 362.096 277.227 360.655 288.438 348.242L261.723 324.112L235.007 299.982C243.829 290.214 254.324 290.096 255.643 290.096V326.096ZM261.723 324.112L288.438 348.242C298.885 336.676 299.515 322.879 299.515 317.264H263.515H227.515C227.515 316.869 227.53 315.003 228.239 312.294C228.947 309.59 230.689 304.763 235.007 299.982L261.723 324.112ZM263.515 317.264H299.515C299.515 312.815 299.058 306.786 296.855 300.377L262.811 312.08L228.766 323.783C228.096 321.836 227.803 320.251 227.666 319.244C227.527 318.225 227.515 317.532 227.515 317.264H263.515ZM262.811 312.08L296.855 300.377C293.795 291.473 287.554 282.987 277.862 277.602L260.379 309.072L242.895 340.542C235.507 336.437 230.888 329.956 228.766 323.783L262.811 312.08ZM260.379 309.072L279.246 278.412C270.281 272.895 261.258 272.048 255.771 272.048V308.048V344.048C254.209 344.048 248.257 343.883 241.511 339.732L260.379 309.072ZM255.771 308.048V272.048H251.419V308.048V344.048H255.771V308.048ZM251.419 308.048H215.419V326.096H251.419H287.419V308.048H251.419ZM251.419 326.096V362.096H255.643V326.096V290.096H251.419V326.096ZM253.851 304.144V340.144C258.382 340.144 266.352 339.647 274.622 335.511L258.523 303.312L242.423 271.113C245.672 269.488 248.475 268.803 250.211 268.494C251.981 268.178 253.269 268.144 253.851 268.144V304.144ZM258.523 303.312L274.622 335.511C283.986 330.829 290.801 323.006 294.398 313.851L260.891 300.688L227.383 287.525C228.59 284.453 230.465 281.174 233.22 278.121C235.99 275.053 239.177 272.736 242.423 271.113L258.523 303.312ZM260.891 300.688L294.55 313.456C297.096 306.743 297.595 300.439 297.595 295.952H261.595H225.595C225.595 295.483 225.621 294.555 225.81 293.283C225.997 292.022 226.385 290.15 227.231 287.92L260.891 300.688ZM261.595 295.952H297.595C297.595 290.286 296.837 275.198 284.299 263.555L259.803 289.936L235.306 316.317C230.031 311.418 227.672 305.997 226.645 302.549C225.649 299.208 225.595 296.744 225.595 295.952H261.595ZM259.803 289.936L285.258 264.48C273.705 252.926 259.329 252.208 253.723 252.208V288.208V324.208C253.001 324.208 250.713 324.16 247.577 323.269C244.374 322.358 239.199 320.244 234.347 315.392L259.803 289.936ZM253.723 288.208V252.208H251.419V288.208V324.208H253.723V288.208ZM251.419 288.208H215.419V304.144H251.419H287.419V288.208H251.419ZM251.419 304.144V340.144H253.851V304.144V268.144H251.419V304.144Z" fill="#2B4343" mask="url(#path-3-outside-1_210_62)"/>
<mask id="path-5-outside-2_210_62" maskUnits="userSpaceOnUse" x="76" y="144" width="226" height="134" fill="black">
<rect fill="white" x="76" y="144" width="226" height="134"/>
<path d="M112.24 241V236.76H115.6C116.347 236.76 117.013 236.653 117.6 236.44C118.24 236.227 118.747 235.773 119.12 235.08C119.493 234.387 119.68 233.347 119.68 231.96V193.32C119.68 191.773 119.493 190.653 119.12 189.96C118.8 189.213 118.32 188.733 117.68 188.52C117.093 188.253 116.4 188.12 115.6 188.12H112.24V183.88H156.64L156.96 198.6H151.36L150.96 194.84C150.853 193.507 150.587 192.413 150.16 191.56C149.787 190.653 149.253 189.96 148.56 189.48C147.867 189 146.96 188.76 145.84 188.76H132.4V208.76H151.36V213.56H132.4V236.12H148.4C149.467 236.12 150.347 235.853 151.04 235.32C151.733 234.787 152.267 234.067 152.64 233.16C153.067 232.253 153.36 231.213 153.52 230.04L154.16 226.28H159.68L159.12 241H112.24ZM182.266 241.8C178.799 241.8 175.839 241.027 173.386 239.48C170.932 237.933 169.066 235.533 167.786 232.28C166.559 228.973 165.946 224.76 165.946 219.64C165.946 214.467 166.559 210.227 167.786 206.92C169.066 203.613 170.906 201.16 173.306 199.56C175.759 197.96 178.692 197.16 182.106 197.16C185.092 197.16 187.546 197.773 189.466 199C191.386 200.173 192.906 201.693 194.026 203.56H194.586C194.372 202.067 194.212 200.387 194.106 198.52C193.999 196.653 193.946 195.08 193.946 193.8V189.4C193.946 187.907 193.652 186.813 193.066 186.12C192.479 185.427 191.679 184.973 190.666 184.76C189.706 184.547 188.639 184.44 187.466 184.44H186.826V180.2H206.106V231.16C206.106 232.76 206.399 233.96 206.986 234.76C207.626 235.56 208.452 236.093 209.466 236.36C210.479 236.627 211.572 236.76 212.746 236.76H213.066V241H197.546L195.306 234.76H194.586C193.412 236.893 191.839 238.6 189.866 239.88C187.946 241.16 185.412 241.8 182.266 241.8ZM185.706 235.8C188.852 235.8 191.012 234.467 192.186 231.8C193.359 229.08 193.946 224.973 193.946 219.48C193.946 214.2 193.359 210.147 192.186 207.32C191.012 204.493 188.852 203.08 185.706 203.08C183.946 203.08 182.506 203.72 181.386 205C180.319 206.28 179.519 208.147 178.986 210.6C178.506 213 178.266 215.987 178.266 219.56C178.266 224.947 178.826 229 179.946 231.72C181.119 234.44 183.039 235.8 185.706 235.8ZM234.859 241.8C230.699 241.8 227.499 240.52 225.259 237.96C223.019 235.347 221.899 231.347 221.899 225.96V208.04C221.899 206.493 221.712 205.32 221.339 204.52C220.965 203.667 220.379 203.107 219.579 202.84C218.779 202.52 217.739 202.36 216.459 202.36H216.299V198.12H234.059V223.72C234.059 226.013 234.219 228.013 234.539 229.72C234.912 231.373 235.552 232.68 236.459 233.64C237.365 234.547 238.592 235 240.139 235C241.845 235 243.232 234.52 244.299 233.56C245.365 232.547 246.139 231.133 246.619 229.32C247.152 227.453 247.419 225.293 247.419 222.84V207.48C247.419 205.933 247.152 204.813 246.619 204.12C246.085 203.373 245.392 202.893 244.539 202.68C243.685 202.467 242.725 202.36 241.659 202.36H241.419V198.12H259.579V231.72C259.579 233.267 259.792 234.413 260.219 235.16C260.699 235.853 261.339 236.307 262.139 236.52C262.992 236.68 263.925 236.76 264.939 236.76H265.579V241H249.659L247.899 235.32H247.499C245.899 238.093 244.005 239.88 241.819 240.68C239.685 241.427 237.365 241.8 234.859 241.8Z"/>
</mask>
<path d="M112.24 241V236.76H115.6C116.347 236.76 117.013 236.653 117.6 236.44C118.24 236.227 118.747 235.773 119.12 235.08C119.493 234.387 119.68 233.347 119.68 231.96V193.32C119.68 191.773 119.493 190.653 119.12 189.96C118.8 189.213 118.32 188.733 117.68 188.52C117.093 188.253 116.4 188.12 115.6 188.12H112.24V183.88H156.64L156.96 198.6H151.36L150.96 194.84C150.853 193.507 150.587 192.413 150.16 191.56C149.787 190.653 149.253 189.96 148.56 189.48C147.867 189 146.96 188.76 145.84 188.76H132.4V208.76H151.36V213.56H132.4V236.12H148.4C149.467 236.12 150.347 235.853 151.04 235.32C151.733 234.787 152.267 234.067 152.64 233.16C153.067 232.253 153.36 231.213 153.52 230.04L154.16 226.28H159.68L159.12 241H112.24ZM182.266 241.8C178.799 241.8 175.839 241.027 173.386 239.48C170.932 237.933 169.066 235.533 167.786 232.28C166.559 228.973 165.946 224.76 165.946 219.64C165.946 214.467 166.559 210.227 167.786 206.92C169.066 203.613 170.906 201.16 173.306 199.56C175.759 197.96 178.692 197.16 182.106 197.16C185.092 197.16 187.546 197.773 189.466 199C191.386 200.173 192.906 201.693 194.026 203.56H194.586C194.372 202.067 194.212 200.387 194.106 198.52C193.999 196.653 193.946 195.08 193.946 193.8V189.4C193.946 187.907 193.652 186.813 193.066 186.12C192.479 185.427 191.679 184.973 190.666 184.76C189.706 184.547 188.639 184.44 187.466 184.44H186.826V180.2H206.106V231.16C206.106 232.76 206.399 233.96 206.986 234.76C207.626 235.56 208.452 236.093 209.466 236.36C210.479 236.627 211.572 236.76 212.746 236.76H213.066V241H197.546L195.306 234.76H194.586C193.412 236.893 191.839 238.6 189.866 239.88C187.946 241.16 185.412 241.8 182.266 241.8ZM185.706 235.8C188.852 235.8 191.012 234.467 192.186 231.8C193.359 229.08 193.946 224.973 193.946 219.48C193.946 214.2 193.359 210.147 192.186 207.32C191.012 204.493 188.852 203.08 185.706 203.08C183.946 203.08 182.506 203.72 181.386 205C180.319 206.28 179.519 208.147 178.986 210.6C178.506 213 178.266 215.987 178.266 219.56C178.266 224.947 178.826 229 179.946 231.72C181.119 234.44 183.039 235.8 185.706 235.8ZM234.859 241.8C230.699 241.8 227.499 240.52 225.259 237.96C223.019 235.347 221.899 231.347 221.899 225.96V208.04C221.899 206.493 221.712 205.32 221.339 204.52C220.965 203.667 220.379 203.107 219.579 202.84C218.779 202.52 217.739 202.36 216.459 202.36H216.299V198.12H234.059V223.72C234.059 226.013 234.219 228.013 234.539 229.72C234.912 231.373 235.552 232.68 236.459 233.64C237.365 234.547 238.592 235 240.139 235C241.845 235 243.232 234.52 244.299 233.56C245.365 232.547 246.139 231.133 246.619 229.32C247.152 227.453 247.419 225.293 247.419 222.84V207.48C247.419 205.933 247.152 204.813 246.619 204.12C246.085 203.373 245.392 202.893 244.539 202.68C243.685 202.467 242.725 202.36 241.659 202.36H241.419V198.12H259.579V231.72C259.579 233.267 259.792 234.413 260.219 235.16C260.699 235.853 261.339 236.307 262.139 236.52C262.992 236.68 263.925 236.76 264.939 236.76H265.579V241H249.659L247.899 235.32H247.499C245.899 238.093 244.005 239.88 241.819 240.68C239.685 241.427 237.365 241.8 234.859 241.8Z" fill="white"/>
<path d="M112.24 241H76.24C76.24 260.882 92.3577 277 112.24 277L112.24 241ZM112.24 236.76V200.76C92.3577 200.76 76.24 216.878 76.24 236.76H112.24ZM117.6 236.44L106.216 202.287C105.908 202.39 105.602 202.497 105.297 202.607L117.6 236.44ZM119.12 235.08L150.817 252.148L150.817 252.148L119.12 235.08ZM119.12 189.96L86.0308 204.141C86.4518 205.123 86.9163 206.087 87.423 207.028L119.12 189.96ZM117.68 188.52L102.783 221.293C103.929 221.814 105.102 222.275 106.296 222.673L117.68 188.52ZM112.24 188.12H76.24C76.24 208.002 92.3577 224.12 112.24 224.12L112.24 188.12ZM112.24 183.88V147.88C92.3577 147.88 76.24 163.998 76.24 183.88H112.24ZM156.64 183.88L192.631 183.098C192.206 163.525 176.217 147.88 156.64 147.88V183.88ZM156.96 198.6V234.6C166.643 234.6 175.919 230.699 182.691 223.778C189.463 216.856 193.162 207.499 192.951 197.818L156.96 198.6ZM151.36 198.6L115.562 202.408C117.509 220.713 132.952 234.6 151.36 234.6V198.6ZM150.96 194.84L115.075 197.711C115.1 198.024 115.129 198.336 115.162 198.648L150.96 194.84ZM150.16 191.56L116.872 205.267C117.205 206.078 117.569 206.876 117.961 207.66L150.16 191.56ZM132.4 188.76V152.76C112.518 152.76 96.4 168.878 96.4 188.76H132.4ZM132.4 208.76H96.4C96.4 228.642 112.518 244.76 132.4 244.76V208.76ZM151.36 208.76H187.36C187.36 188.878 171.242 172.76 151.36 172.76V208.76ZM151.36 213.56V249.56C171.242 249.56 187.36 233.442 187.36 213.56H151.36ZM132.4 213.56V177.56C112.518 177.56 96.4 193.678 96.4 213.56H132.4ZM132.4 236.12H96.4C96.4 256.002 112.518 272.12 132.4 272.12V236.12ZM152.64 233.16L120.066 217.831C119.815 218.366 119.577 218.907 119.352 219.453L152.64 233.16ZM153.52 230.04L118.03 223.999C117.964 224.39 117.904 224.783 117.85 225.176L153.52 230.04ZM154.16 226.28V190.28C136.609 190.28 121.616 202.937 118.67 220.239L154.16 226.28ZM159.68 226.28L195.654 227.649C196.026 217.87 192.402 208.362 185.615 201.313C178.829 194.263 169.465 190.28 159.68 190.28V226.28ZM159.12 241V277C178.47 277 194.358 261.704 195.094 242.369L159.12 241ZM112.24 241H148.24V236.76H112.24H76.24V241H112.24ZM112.24 236.76V272.76H115.6V236.76V200.76H112.24V236.76ZM115.6 236.76V272.76C119.742 272.76 124.684 272.17 129.903 270.273L117.6 236.44L105.297 202.607C109.342 201.137 112.952 200.76 115.6 200.76V236.76ZM117.6 236.44L128.984 270.593C139.765 266.999 146.874 259.471 150.817 252.148L119.12 235.08L87.423 218.012C90.6196 212.076 96.7152 205.454 106.216 202.287L117.6 236.44ZM119.12 235.08L150.817 252.148C155.418 243.603 155.68 235.401 155.68 231.96H119.68H83.68C83.68 231.139 83.7274 229.531 84.1062 227.42C84.4705 225.391 85.309 221.939 87.423 218.012L119.12 235.08ZM119.68 231.96H155.68V193.32H119.68H83.68V231.96H119.68ZM119.68 193.32H155.68C155.68 190.518 155.621 181.815 150.817 172.892L119.12 189.96L87.423 207.028C85.1053 202.723 84.3248 199.008 84.0298 197.238C83.7044 195.286 83.68 193.872 83.68 193.32H119.68ZM119.12 189.96L152.209 175.779C148.74 167.684 141.438 158.492 129.064 154.367L117.68 188.52L106.296 222.673C101.28 221 96.7504 218.182 93.0642 214.496C89.4964 210.928 87.328 207.168 86.0308 204.141L119.12 189.96ZM117.68 188.52L132.577 155.747C126.325 152.905 120.332 152.12 115.6 152.12V188.12V224.12C112.468 224.12 107.861 223.602 102.783 221.293L117.68 188.52ZM115.6 188.12V152.12H112.24V188.12V224.12H115.6V188.12ZM112.24 188.12H148.24V183.88H112.24H76.24V188.12H112.24ZM112.24 183.88V219.88H156.64V183.88V147.88H112.24V183.88ZM156.64 183.88L120.649 184.662L120.969 199.382L156.96 198.6L192.951 197.818L192.631 183.098L156.64 183.88ZM156.96 198.6V162.6H151.36V198.6V234.6H156.96V198.6ZM151.36 198.6L187.158 194.792L186.758 191.032L150.96 194.84L115.162 198.648L115.562 202.408L151.36 198.6ZM150.96 194.84L186.845 191.969C186.508 187.747 185.503 181.748 182.359 175.46L150.16 191.56L117.961 207.66C115.67 203.078 115.199 199.266 115.075 197.711L150.96 194.84ZM150.16 191.56L183.448 177.853C180.871 171.593 176.334 164.923 169.052 159.881L148.56 189.48L128.068 219.079C122.172 214.997 118.702 209.713 116.872 205.267L150.16 191.56ZM148.56 189.48L169.052 159.881C160.647 154.063 151.915 152.76 145.84 152.76V188.76V224.76C142.005 224.76 135.086 223.937 128.068 219.079L148.56 189.48ZM145.84 188.76V152.76H132.4V188.76V224.76H145.84V188.76ZM132.4 188.76H96.4V208.76H132.4H168.4V188.76H132.4ZM132.4 208.76V244.76H151.36V208.76V172.76H132.4V208.76ZM151.36 208.76H115.36V213.56H151.36H187.36V208.76H151.36ZM151.36 213.56V177.56H132.4V213.56V249.56H151.36V213.56ZM132.4 213.56H96.4V236.12H132.4H168.4V213.56H132.4ZM132.4 236.12V272.12H148.4V236.12V200.12H132.4V236.12ZM148.4 236.12V272.12C155.618 272.12 164.719 270.216 172.99 263.854L151.04 235.32L129.09 206.786C135.974 201.49 143.315 200.12 148.4 200.12V236.12ZM151.04 235.32L172.99 263.854C179.286 259.011 183.443 252.904 185.928 246.867L152.64 233.16L119.352 219.453C121.091 215.23 124.181 210.562 129.09 206.786L151.04 235.32ZM152.64 233.16L185.214 248.489C187.451 243.733 188.623 239.062 189.19 234.904L153.52 230.04L117.85 225.176C118.097 223.364 118.682 220.773 120.066 217.831L152.64 233.16ZM153.52 230.04L189.01 236.081L189.65 232.321L154.16 226.28L118.67 220.239L118.03 223.999L153.52 230.04ZM154.16 226.28V262.28H159.68V226.28V190.28H154.16V226.28ZM159.68 226.28L123.706 224.911L123.146 239.631L159.12 241L195.094 242.369L195.654 227.649L159.68 226.28ZM159.12 241V205H112.24V241V277H159.12V241ZM173.386 239.48L192.584 209.027L192.584 209.027L173.386 239.48ZM167.786 232.28L134.033 244.801C134.115 245.022 134.199 245.241 134.285 245.46L167.786 232.28ZM167.786 206.92L134.213 193.924C134.152 194.082 134.092 194.24 134.033 194.399L167.786 206.92ZM173.306 199.56L153.64 169.406C153.538 169.472 153.437 169.539 153.336 169.606L173.306 199.56ZM189.466 199L170.084 229.337C170.286 229.466 170.489 229.593 170.693 229.718L189.466 199ZM194.026 203.56L163.156 222.082C169.662 232.925 181.38 239.56 194.026 239.56V203.56ZM194.586 203.56V239.56C205.022 239.56 214.944 235.031 221.782 227.147C228.62 219.263 231.7 208.8 230.224 198.469L194.586 203.56ZM194.106 198.52L230.047 196.466L230.047 196.466L194.106 198.52ZM190.666 184.76L182.856 219.903C182.987 219.932 183.118 219.96 183.249 219.988L190.666 184.76ZM186.826 184.44H150.826C150.826 204.322 166.943 220.44 186.826 220.44V184.44ZM186.826 180.2V144.2C166.943 144.2 150.826 160.318 150.826 180.2H186.826ZM206.106 180.2H242.106C242.106 160.318 225.988 144.2 206.106 144.2V180.2ZM206.986 234.76L177.955 256.049C178.253 256.455 178.56 256.856 178.874 257.249L206.986 234.76ZM213.066 236.76H249.066C249.066 216.878 232.948 200.76 213.066 200.76V236.76ZM213.066 241V277C232.948 277 249.066 260.882 249.066 241H213.066ZM197.546 241L163.663 253.163C168.796 267.462 182.353 277 197.546 277V241ZM195.306 234.76L229.189 222.597C224.056 208.298 210.498 198.76 195.306 198.76V234.76ZM194.586 234.76V198.76C181.457 198.76 169.369 205.907 163.042 217.411L194.586 234.76ZM189.866 239.88L170.275 209.677C170.148 209.76 170.022 209.842 169.896 209.926L189.866 239.88ZM192.186 231.8L225.137 246.299C225.172 246.219 225.207 246.139 225.241 246.059L192.186 231.8ZM192.186 207.32L158.936 221.122L158.936 221.122L192.186 207.32ZM181.386 205L154.293 181.294C154.102 181.511 153.915 181.731 153.73 181.953L181.386 205ZM178.986 210.6L143.807 202.953C143.765 203.148 143.724 203.344 143.685 203.54L178.986 210.6ZM179.946 231.72L146.657 245.427C146.733 245.612 146.811 245.796 146.89 245.979L179.946 231.72ZM182.266 241.8V205.8C184.253 205.8 188.252 206.295 192.584 209.027L173.386 239.48L154.187 269.933C163.426 275.758 173.345 277.8 182.266 277.8V241.8ZM173.386 239.48L192.584 209.027C197.859 212.352 200.35 216.721 201.286 219.1L167.786 232.28L134.285 245.46C137.781 254.346 144.005 263.515 154.187 269.933L173.386 239.48ZM167.786 232.28L201.538 219.759C201.756 220.348 201.882 220.798 201.949 221.074C202.017 221.35 202.035 221.485 202.03 221.454C202.026 221.424 202.004 221.262 201.983 220.949C201.963 220.638 201.946 220.205 201.946 219.64H165.946H129.946C129.946 227.274 130.811 236.115 134.033 244.801L167.786 232.28ZM165.946 219.64H201.946C201.946 219.054 201.963 218.603 201.984 218.276C202.006 217.947 202.029 217.773 202.035 217.734C202.041 217.694 202.024 217.826 201.956 218.103C201.889 218.379 201.762 218.838 201.538 219.441L167.786 206.92L134.033 194.399C130.799 203.118 129.946 212.005 129.946 219.64H165.946ZM167.786 206.92L201.358 219.916C200.582 221.921 198.342 226.136 193.275 229.514L173.306 199.56L153.336 169.606C143.469 176.184 137.549 185.305 134.213 193.924L167.786 206.92ZM173.306 199.56L192.971 229.714C188.66 232.526 184.496 233.16 182.106 233.16V197.16V161.16C172.889 161.16 162.858 163.394 153.64 169.406L173.306 199.56ZM182.106 197.16V233.16C180.32 233.16 175.495 232.795 170.084 229.337L189.466 199L208.848 168.663C199.596 162.752 189.865 161.16 182.106 161.16V197.16ZM189.466 199L170.693 229.718C167.829 227.967 165.128 225.368 163.156 222.082L194.026 203.56L224.895 185.038C220.684 178.019 214.943 172.379 208.238 168.282L189.466 199ZM194.026 203.56V239.56H194.586V203.56V167.56H194.026V203.56ZM194.586 203.56L230.224 198.469C230.184 198.187 230.109 197.546 230.047 196.466L194.106 198.52L158.164 200.574C158.316 203.227 158.561 205.946 158.947 208.651L194.586 203.56ZM194.106 198.52L230.047 196.466C229.963 195.003 229.946 194.162 229.946 193.8H193.946H157.946C157.946 195.998 158.035 198.303 158.164 200.574L194.106 198.52ZM193.946 193.8H229.946V189.4H193.946H157.946V193.8H193.946ZM193.946 189.4H229.946C229.946 184.488 229.213 173.107 220.548 162.866L193.066 186.12L165.584 209.374C161.715 204.802 159.853 200.135 158.955 196.789C158.074 193.503 157.946 190.865 157.946 189.4H193.946ZM193.066 186.12L220.548 162.866C214.077 155.22 205.777 151.152 198.082 149.532L190.666 184.76L183.249 219.988C177.581 218.794 170.881 215.634 165.584 209.374L193.066 186.12ZM190.666 184.76L198.475 149.617C194.515 148.737 190.778 148.44 187.466 148.44V184.44V220.44C186.5 220.44 184.896 220.356 182.856 219.903L190.666 184.76ZM187.466 184.44V148.44H186.826V184.44V220.44H187.466V184.44ZM186.826 184.44H222.826V180.2H186.826H150.826V184.44H186.826ZM186.826 180.2V216.2H206.106V180.2V144.2H186.826V180.2ZM206.106 180.2H170.106V231.16H206.106H242.106V180.2H206.106ZM206.106 231.16H170.106C170.106 236.098 170.822 246.322 177.955 256.049L206.986 234.76L236.016 213.471C239.116 217.697 240.586 221.806 241.296 224.712C242 227.59 242.106 229.877 242.106 231.16H206.106ZM206.986 234.76L178.874 257.249C184.461 264.232 191.998 268.989 200.304 271.175L209.466 236.36L218.627 201.545C224.907 203.198 230.791 206.888 235.097 212.271L206.986 234.76ZM209.466 236.36L200.304 271.175C204.64 272.316 208.844 272.76 212.746 272.76V236.76V200.76C214.301 200.76 216.318 200.938 218.627 201.545L209.466 236.36ZM212.746 236.76V272.76H213.066V236.76V200.76H212.746V236.76ZM213.066 236.76H177.066V241H213.066H249.066V236.76H213.066ZM213.066 241V205H197.546V241V277H213.066V241ZM197.546 241L231.429 228.837L229.189 222.597L195.306 234.76L161.423 246.923L163.663 253.163L197.546 241ZM195.306 234.76V198.76H194.586V234.76V270.76H195.306V234.76ZM194.586 234.76L163.042 217.411C164.627 214.529 167.086 211.746 170.275 209.677L189.866 239.88L209.457 270.083C216.592 265.454 222.198 259.258 226.129 252.109L194.586 234.76ZM189.866 239.88L169.896 209.926C175.682 206.069 180.818 205.8 182.266 205.8V241.8V277.8C190.007 277.8 200.209 276.251 209.835 269.834L189.866 239.88ZM185.706 235.8V271.8C192.363 271.8 200.612 270.362 208.595 265.434C216.766 260.39 222.061 253.29 225.137 246.299L192.186 231.8L159.234 217.301C161.137 212.976 164.765 207.877 170.776 204.166C176.599 200.572 182.195 199.8 185.706 199.8V235.8ZM192.186 231.8L225.241 246.059C229.376 236.475 229.946 226.402 229.946 219.48H193.946H157.946C157.946 220.221 157.926 220.769 157.903 221.144C157.879 221.524 157.857 221.66 157.867 221.589C157.876 221.526 157.933 221.143 158.096 220.513C158.255 219.892 158.564 218.853 159.13 217.541L192.186 231.8ZM193.946 219.48H229.946C229.946 212.4 229.286 202.796 225.435 193.518L192.186 207.32L158.936 221.122C158.477 220.015 158.219 219.138 158.079 218.592C157.938 218.04 157.887 217.704 157.877 217.637C157.867 217.565 157.886 217.679 157.907 218.008C157.927 218.335 157.946 218.819 157.946 219.48H193.946ZM192.186 207.32L225.435 193.518C222.602 186.694 217.579 179.37 209.397 174.016C201.286 168.708 192.735 167.08 185.706 167.08V203.08V239.08C181.823 239.08 175.926 238.158 169.975 234.264C163.952 230.324 160.596 225.119 158.936 221.122L192.186 207.32ZM185.706 203.08V167.08C173.977 167.08 162.516 171.896 154.293 181.294L181.386 205L208.478 228.706C205.875 231.682 202.352 234.49 197.927 236.457C193.533 238.41 189.272 239.08 185.706 239.08V203.08ZM181.386 205L153.73 181.953C147.545 189.375 145 197.467 143.807 202.953L178.986 210.6L214.164 218.247C214.053 218.759 213.759 219.944 213.075 221.541C212.391 223.137 211.164 225.5 209.042 228.047L181.386 205ZM178.986 210.6L143.685 203.54C142.581 209.058 142.266 214.592 142.266 219.56H178.266H214.266C214.266 218.559 214.3 217.896 214.33 217.524C214.361 217.135 214.375 217.216 214.287 217.66L178.986 210.6ZM178.266 219.56H142.266C142.266 226.396 142.825 236.12 146.657 245.427L179.946 231.72L213.234 218.013C213.739 219.238 214.012 220.198 214.152 220.763C214.294 221.338 214.342 221.676 214.347 221.713C214.353 221.757 214.33 221.603 214.307 221.218C214.285 220.837 214.266 220.291 214.266 219.56H178.266ZM179.946 231.72L146.89 245.979C149.423 251.85 153.871 258.784 161.457 264.157C169.292 269.707 177.951 271.8 185.706 271.8V235.8V199.8C190.794 199.8 197.159 201.213 203.074 205.403C208.74 209.416 211.642 214.31 213.001 217.461L179.946 231.72ZM225.259 237.96L197.926 261.388C198.005 261.481 198.085 261.574 198.166 261.666L225.259 237.96ZM221.339 204.52L188.357 218.949C188.474 219.216 188.593 219.481 188.716 219.744L221.339 204.52ZM219.579 202.84L206.209 236.265C206.863 236.527 207.526 236.77 208.195 236.993L219.579 202.84ZM216.299 202.36H180.299C180.299 222.242 196.416 238.36 216.299 238.36V202.36ZM216.299 198.12V162.12C196.416 162.12 180.299 178.238 180.299 198.12H216.299ZM234.059 198.12H270.059C270.059 178.238 253.941 162.12 234.059 162.12V198.12ZM234.539 229.72L199.155 236.354C199.237 236.788 199.326 237.219 199.423 237.649L234.539 229.72ZM236.459 233.64L210.286 258.358C210.522 258.608 210.761 258.853 211.003 259.096L236.459 233.64ZM244.299 233.56L268.381 260.319C268.622 260.102 268.859 259.883 269.094 259.66L244.299 233.56ZM246.619 229.32L212.004 219.43C211.94 219.655 211.877 219.881 211.817 220.108L246.619 229.32ZM246.619 204.12L217.324 225.045C217.572 225.391 217.825 225.732 218.084 226.07L246.619 204.12ZM244.539 202.68L253.27 167.755L253.27 167.755L244.539 202.68ZM241.419 202.36H205.419C205.419 222.242 221.536 238.36 241.419 238.36V202.36ZM241.419 198.12V162.12C221.536 162.12 205.419 178.238 205.419 198.12H241.419ZM259.579 198.12H295.579C295.579 178.238 279.461 162.12 259.579 162.12V198.12ZM260.219 235.16L228.962 253.021C229.476 253.921 230.03 254.799 230.62 255.652L260.219 235.16ZM262.139 236.52L252.863 271.304C253.736 271.537 254.617 271.737 255.504 271.903L262.139 236.52ZM265.579 236.76H301.579C301.579 216.878 285.461 200.76 265.579 200.76V236.76ZM265.579 241V277C285.461 277 301.579 260.882 301.579 241H265.579ZM249.659 241L215.272 251.655C219.942 266.726 233.881 277 249.659 277V241ZM247.899 235.32L282.286 224.665C277.616 209.594 263.677 199.32 247.899 199.32V235.32ZM247.499 235.32V199.32C234.633 199.32 222.745 206.186 216.316 217.33L247.499 235.32ZM241.819 240.68L253.711 274.659C253.871 274.603 254.029 274.546 254.188 274.488L241.819 240.68ZM234.859 241.8V205.8C236.434 205.8 239.275 206.041 242.709 207.415C246.314 208.857 249.678 211.198 252.352 214.254L225.259 237.96L198.166 261.666C208.741 273.752 222.834 277.8 234.859 277.8V241.8ZM225.259 237.96L252.592 214.532C255.52 217.947 256.838 221.267 257.405 223.293C257.947 225.228 257.899 226.288 257.899 225.96H221.899H185.899C185.899 235.327 187.685 249.442 197.926 261.388L225.259 237.96ZM221.899 225.96H257.899V208.04H221.899H185.899V225.96H221.899ZM221.899 208.04H257.899C257.899 204.614 257.646 197.191 253.961 189.296L221.339 204.52L188.716 219.744C187.093 216.265 186.47 213.317 186.206 211.656C185.928 209.912 185.899 208.629 185.899 208.04H221.899ZM221.339 204.52L254.32 190.091C250.34 180.992 242.502 172.534 230.963 168.687L219.579 202.84L208.195 236.993C203.766 235.516 199.46 233.031 195.762 229.501C192.13 226.034 189.801 222.25 188.357 218.949L221.339 204.52ZM219.579 202.84L232.949 169.415C226.357 166.778 220.301 166.36 216.459 166.36V202.36V238.36C215.643 238.36 214.354 238.312 212.725 238.061C211.111 237.813 208.836 237.316 206.209 236.265L219.579 202.84ZM216.459 202.36V166.36H216.299V202.36V238.36H216.459V202.36ZM216.299 202.36H252.299V198.12H216.299H180.299V202.36H216.299ZM216.299 198.12V234.12H234.059V198.12V162.12H216.299V198.12ZM234.059 198.12H198.059V223.72H234.059H270.059V198.12H234.059ZM234.059 223.72H198.059C198.059 227.577 198.319 231.894 199.155 236.354L234.539 229.72L269.922 223.086C270.028 223.651 270.058 223.996 270.064 224.069C270.07 224.148 270.059 224.041 270.059 223.72H234.059ZM234.539 229.72L199.423 237.649C200.822 243.847 203.857 251.551 210.286 258.358L236.459 233.64L262.631 208.922C267.247 213.809 269.002 218.9 269.655 221.791L234.539 229.72ZM236.459 233.64L211.003 259.096C220.016 268.109 231.148 271 240.139 271V235V199C246.036 199 254.715 200.984 261.915 208.184L236.459 233.64ZM240.139 235V271C248.961 271 259.492 268.319 268.381 260.319L244.299 233.56L220.216 206.801C226.972 200.721 234.73 199 240.139 199V235ZM244.299 233.56L269.094 259.66C276.159 252.948 279.697 245.042 281.42 238.532L246.619 229.32L211.817 220.108C212.581 217.224 214.572 212.145 219.504 207.46L244.299 233.56ZM246.619 229.32L281.234 239.21C282.89 233.411 283.419 227.802 283.419 222.84H247.419H211.419C211.419 222.785 211.414 221.496 212.004 219.43L246.619 229.32ZM247.419 222.84H283.419V207.48H247.419H211.419V222.84H247.419ZM247.419 207.48H283.419C283.419 203.417 283.03 192.41 275.153 182.17L246.619 204.12L218.084 226.07C214.437 221.328 212.887 216.712 212.198 213.818C211.502 210.897 211.419 208.622 211.419 207.48H247.419ZM246.619 204.12L275.913 183.195C270.641 175.814 262.806 170.139 253.27 167.755L244.539 202.68L235.807 237.605C227.978 235.648 221.53 230.933 217.324 225.045L246.619 204.12ZM244.539 202.68L253.27 167.755C249.033 166.696 245.069 166.36 241.659 166.36V202.36V238.36C240.382 238.36 238.338 238.238 235.808 237.605L244.539 202.68ZM241.659 202.36V166.36H241.419V202.36V238.36H241.659V202.36ZM241.419 202.36H277.419V198.12H241.419H205.419V202.36H241.419ZM241.419 198.12V234.12H259.579V198.12V162.12H241.419V198.12ZM259.579 198.12H223.579V231.72H259.579H295.579V198.12H259.579ZM259.579 231.72H223.579C223.579 235.245 223.831 244.041 228.962 253.021L260.219 235.16L291.475 217.299C293.833 221.425 294.746 225.081 295.131 227.155C295.535 229.323 295.579 230.951 295.579 231.72H259.579ZM260.219 235.16L230.62 255.652C235.865 263.228 243.641 268.845 252.863 271.304L262.139 236.52L271.415 201.736C279.036 203.768 285.533 208.479 289.818 214.668L260.219 235.16ZM262.139 236.52L255.504 271.903C258.872 272.535 262.059 272.76 264.939 272.76V236.76V200.76C265.792 200.76 267.112 200.825 268.773 201.137L262.139 236.52ZM264.939 236.76V272.76H265.579V236.76V200.76H264.939V236.76ZM265.579 236.76H229.579V241H265.579H301.579V236.76H265.579ZM265.579 241V205H249.659V241V277H265.579V241ZM249.659 241L284.046 230.345L282.286 224.665L247.899 235.32L213.512 245.975L215.272 251.655L249.659 241ZM247.899 235.32V199.32H247.499V235.32V271.32H247.899V235.32ZM247.499 235.32L216.316 217.33C217.361 215.52 221.174 209.899 229.45 206.872L241.819 240.68L254.188 274.488C266.837 269.861 274.437 260.667 278.681 253.31L247.499 235.32ZM241.819 240.68L229.926 206.701C232.008 205.972 233.755 205.8 234.859 205.8V241.8V277.8C240.976 277.8 247.362 276.881 253.711 274.659L241.819 240.68Z" fill="#2B4343" mask="url(#path-5-outside-2_210_62)"/>
<rect x="268" y="163.362" width="41.1165" height="182.952" rx="7" transform="rotate(-6.08929 268 163.362)" fill="#DC6F4A"/>
<rect x="323" y="208.518" width="52.0136" height="137.325" rx="8" transform="rotate(-6.08929 323 208.518)" fill="white"/>
<path d="M167.792 330V326.608H170.48C171.12 326.608 171.675 326.523 172.144 326.352C172.656 326.139 173.04 325.733 173.296 325.136C173.595 324.539 173.744 323.643 173.744 322.448V291.856C173.744 290.619 173.595 289.723 173.296 289.168C173.04 288.571 172.656 288.187 172.144 288.016C171.675 287.803 171.12 287.696 170.48 287.696H167.792V284.304H189.872V287.696H187.184C186.587 287.696 186.032 287.781 185.52 287.952C185.051 288.123 184.667 288.485 184.368 289.04C184.069 289.595 183.92 290.448 183.92 291.6V326.096H195.824C196.805 326.096 197.637 325.883 198.32 325.456C199.045 325.029 199.621 324.411 200.048 323.6C200.517 322.747 200.88 321.723 201.136 320.528L202.16 315.728H205.744L205.296 330H167.792ZM209.667 330V326.608H212.355C212.995 326.608 213.55 326.523 214.019 326.352C214.531 326.139 214.915 325.733 215.171 325.136C215.47 324.539 215.619 323.643 215.619 322.448V291.856C215.619 290.619 215.47 289.723 215.171 289.168C214.915 288.571 214.531 288.187 214.019 288.016C213.55 287.803 212.995 287.696 212.355 287.696H209.667V284.304H231.747V287.696H229.059C228.462 287.696 227.907 287.803 227.395 288.016C226.883 288.187 226.478 288.571 226.179 289.168C225.923 289.723 225.795 290.619 225.795 291.856V322.448C225.795 323.643 225.923 324.539 226.179 325.136C226.478 325.733 226.883 326.139 227.395 326.352C227.907 326.523 228.462 326.608 229.059 326.608H231.747V330H209.667ZM235.355 330V326.608H237.979C238.619 326.608 239.173 326.523 239.643 326.352C240.155 326.139 240.56 325.733 240.859 325.136C241.157 324.539 241.307 323.643 241.307 322.448V291.792C241.307 290.64 241.157 289.787 240.859 289.232C240.56 288.635 240.155 288.229 239.643 288.016C239.131 287.803 238.576 287.696 237.979 287.696H235.355V284.304H254.043C260.144 284.304 264.709 285.243 267.739 287.12C270.811 288.997 272.347 291.941 272.347 295.952C272.347 297.829 272.005 299.408 271.323 300.688C270.64 301.925 269.701 302.949 268.507 303.76C267.312 304.528 265.904 305.168 264.283 305.68V306C266.245 306.469 267.973 307.216 269.467 308.24C270.96 309.264 272.133 310.544 272.987 312.08C273.84 313.573 274.267 315.365 274.267 317.456C274.267 321.637 272.731 324.773 269.659 326.864C266.587 328.955 262.021 330 255.963 330H235.355ZM255.643 326.096C258.501 326.096 260.528 325.435 261.723 324.112C262.917 322.789 263.515 320.507 263.515 317.264C263.515 315.173 263.28 313.445 262.811 312.08C262.341 310.715 261.531 309.712 260.379 309.072C259.269 308.389 257.733 308.048 255.771 308.048H251.419V326.096H255.643ZM253.851 304.144C255.856 304.144 257.413 303.867 258.523 303.312C259.632 302.757 260.421 301.883 260.891 300.688C261.36 299.451 261.595 297.872 261.595 295.952C261.595 293.051 260.997 291.045 259.803 289.936C258.651 288.784 256.624 288.208 253.723 288.208H251.419V304.144H253.851Z" fill="white"/>
<path d="M112.24 241V236.76H115.6C116.347 236.76 117.013 236.653 117.6 236.44C118.24 236.227 118.747 235.773 119.12 235.08C119.493 234.387 119.68 233.347 119.68 231.96V193.32C119.68 191.773 119.493 190.653 119.12 189.96C118.8 189.213 118.32 188.733 117.68 188.52C117.093 188.253 116.4 188.12 115.6 188.12H112.24V183.88H156.64L156.96 198.6H151.36L150.96 194.84C150.853 193.507 150.587 192.413 150.16 191.56C149.787 190.653 149.253 189.96 148.56 189.48C147.867 189 146.96 188.76 145.84 188.76H132.4V208.76H151.36V213.56H132.4V236.12H148.4C149.467 236.12 150.347 235.853 151.04 235.32C151.733 234.787 152.267 234.067 152.64 233.16C153.067 232.253 153.36 231.213 153.52 230.04L154.16 226.28H159.68L159.12 241H112.24ZM182.266 241.8C178.799 241.8 175.839 241.027 173.386 239.48C170.932 237.933 169.066 235.533 167.786 232.28C166.559 228.973 165.946 224.76 165.946 219.64C165.946 214.467 166.559 210.227 167.786 206.92C169.066 203.613 170.906 201.16 173.306 199.56C175.759 197.96 178.692 197.16 182.106 197.16C185.092 197.16 187.546 197.773 189.466 199C191.386 200.173 192.906 201.693 194.026 203.56H194.586C194.372 202.067 194.212 200.387 194.106 198.52C193.999 196.653 193.946 195.08 193.946 193.8V189.4C193.946 187.907 193.652 186.813 193.066 186.12C192.479 185.427 191.679 184.973 190.666 184.76C189.706 184.547 188.639 184.44 187.466 184.44H186.826V180.2H206.106V231.16C206.106 232.76 206.399 233.96 206.986 234.76C207.626 235.56 208.452 236.093 209.466 236.36C210.479 236.627 211.572 236.76 212.746 236.76H213.066V241H197.546L195.306 234.76H194.586C193.412 236.893 191.839 238.6 189.866 239.88C187.946 241.16 185.412 241.8 182.266 241.8ZM185.706 235.8C188.852 235.8 191.012 234.467 192.186 231.8C193.359 229.08 193.946 224.973 193.946 219.48C193.946 214.2 193.359 210.147 192.186 207.32C191.012 204.493 188.852 203.08 185.706 203.08C183.946 203.08 182.506 203.72 181.386 205C180.319 206.28 179.519 208.147 178.986 210.6C178.506 213 178.266 215.987 178.266 219.56C178.266 224.947 178.826 229 179.946 231.72C181.119 234.44 183.039 235.8 185.706 235.8ZM234.859 241.8C230.699 241.8 227.499 240.52 225.259 237.96C223.019 235.347 221.899 231.347 221.899 225.96V208.04C221.899 206.493 221.712 205.32 221.339 204.52C220.965 203.667 220.379 203.107 219.579 202.84C218.779 202.52 217.739 202.36 216.459 202.36H216.299V198.12H234.059V223.72C234.059 226.013 234.219 228.013 234.539 229.72C234.912 231.373 235.552 232.68 236.459 233.64C237.365 234.547 238.592 235 240.139 235C241.845 235 243.232 234.52 244.299 233.56C245.365 232.547 246.139 231.133 246.619 229.32C247.152 227.453 247.419 225.293 247.419 222.84V207.48C247.419 205.933 247.152 204.813 246.619 204.12C246.085 203.373 245.392 202.893 244.539 202.68C243.685 202.467 242.725 202.36 241.659 202.36H241.419V198.12H259.579V231.72C259.579 233.267 259.792 234.413 260.219 235.16C260.699 235.853 261.339 236.307 262.139 236.52C262.992 236.68 263.925 236.76 264.939 236.76H265.579V241H249.659L247.899 235.32H247.499C245.899 238.093 244.005 239.88 241.819 240.68C239.685 241.427 237.365 241.8 234.859 241.8Z" fill="white"/>
</svg>
