<svg width="280" height="191" viewBox="0 0 280 191" fill="none" xmlns="http://www.w3.org/2000/svg">
<rect x="158" y="8.36156" width="41.1165" height="182.952" rx="7" transform="rotate(-6.08929 158 8.36156)" fill="#DC6F4A"/>
<rect x="213" y="53.5175" width="52.0136" height="137.325" rx="8" transform="rotate(-6.08929 213 53.5175)" fill="#2B4343"/>
<path d="M57.792 175V171.608H60.48C61.12 171.608 61.6747 171.523 62.144 171.352C62.656 171.139 63.04 170.733 63.296 170.136C63.5947 169.539 63.744 168.643 63.744 167.448V136.856C63.744 135.619 63.5947 134.723 63.296 134.168C63.04 133.571 62.656 133.187 62.144 133.016C61.6747 132.803 61.12 132.696 60.48 132.696H57.792V129.304H79.872V132.696H77.184C76.5867 132.696 76.032 132.781 75.52 132.952C75.0507 133.123 74.6667 133.485 74.368 134.04C74.0693 134.595 73.92 135.448 73.92 136.6V171.096H85.824C86.8053 171.096 87.6373 170.883 88.32 170.456C89.0453 170.029 89.6213 169.411 90.048 168.6C90.5173 167.747 90.88 166.723 91.136 165.528L92.16 160.728H95.744L95.296 175H57.792ZM99.667 175V171.608H102.355C102.995 171.608 103.55 171.523 104.019 171.352C104.531 171.139 104.915 170.733 105.171 170.136C105.47 169.539 105.619 168.643 105.619 167.448V136.856C105.619 135.619 105.47 134.723 105.171 134.168C104.915 133.571 104.531 133.187 104.019 133.016C103.55 132.803 102.995 132.696 102.355 132.696H99.667V129.304H121.747V132.696H119.059C118.462 132.696 117.907 132.803 117.395 133.016C116.883 133.187 116.478 133.571 116.179 134.168C115.923 134.723 115.795 135.619 115.795 136.856V167.448C115.795 168.643 115.923 169.539 116.179 170.136C116.478 170.733 116.883 171.139 117.395 171.352C117.907 171.523 118.462 171.608 119.059 171.608H121.747V175H99.667ZM125.355 175V171.608H127.979C128.619 171.608 129.173 171.523 129.643 171.352C130.155 171.139 130.56 170.733 130.859 170.136C131.157 169.539 131.307 168.643 131.307 167.448V136.792C131.307 135.64 131.157 134.787 130.859 134.232C130.56 133.635 130.155 133.229 129.643 133.016C129.131 132.803 128.576 132.696 127.979 132.696H125.355V129.304H144.043C150.144 129.304 154.709 130.243 157.739 132.12C160.811 133.997 162.347 136.941 162.347 140.952C162.347 142.829 162.005 144.408 161.323 145.688C160.64 146.925 159.701 147.949 158.507 148.76C157.312 149.528 155.904 150.168 154.283 150.68V151C156.245 151.469 157.973 152.216 159.467 153.24C160.96 154.264 162.133 155.544 162.987 157.08C163.84 158.573 164.267 160.365 164.267 162.456C164.267 166.637 162.731 169.773 159.659 171.864C156.587 173.955 152.021 175 145.963 175H125.355ZM145.643 171.096C148.501 171.096 150.528 170.435 151.723 169.112C152.917 167.789 153.515 165.507 153.515 162.264C153.515 160.173 153.28 158.445 152.811 157.08C152.341 155.715 151.531 154.712 150.379 154.072C149.269 153.389 147.733 153.048 145.771 153.048H141.419V171.096H145.643ZM143.851 149.144C145.856 149.144 147.413 148.867 148.523 148.312C149.632 147.757 150.421 146.883 150.891 145.688C151.36 144.451 151.595 142.872 151.595 140.952C151.595 138.051 150.997 136.045 149.803 134.936C148.651 133.784 146.624 133.208 143.723 133.208H141.419V149.144H143.851Z" fill="#282828"/>
<path d="M2.24 86V81.76H5.6C6.34667 81.76 7.01333 81.6533 7.6 81.44C8.24 81.2267 8.74667 80.7733 9.12 80.08C9.49333 79.3867 9.68 78.3467 9.68 76.96V38.32C9.68 36.7733 9.49333 35.6533 9.12 34.96C8.8 34.2133 8.32 33.7333 7.68 33.52C7.09333 33.2533 6.4 33.12 5.6 33.12H2.24V28.88H46.64L46.96 43.6H41.36L40.96 39.84C40.8533 38.5067 40.5867 37.4133 40.16 36.56C39.7867 35.6533 39.2533 34.96 38.56 34.48C37.8667 34 36.96 33.76 35.84 33.76H22.4V53.76H41.36V58.56H22.4V81.12H38.4C39.4667 81.12 40.3467 80.8533 41.04 80.32C41.7333 79.7867 42.2667 79.0667 42.64 78.16C43.0667 77.2533 43.36 76.2133 43.52 75.04L44.16 71.28H49.68L49.12 86H2.24ZM72.2656 86.8C68.799 86.8 65.839 86.0267 63.3856 84.48C60.9323 82.9333 59.0656 80.5333 57.7856 77.28C56.559 73.9733 55.9456 69.76 55.9456 64.64C55.9456 59.4667 56.559 55.2267 57.7856 51.92C59.0656 48.6133 60.9056 46.16 63.3056 44.56C65.759 42.96 68.6923 42.16 72.1056 42.16C75.0923 42.16 77.5456 42.7733 79.4656 44C81.3856 45.1733 82.9056 46.6933 84.0256 48.56H84.5856C84.479 47.5467 84.3723 46.4533 84.2656 45.28C84.159 44.1067 84.079 42.96 84.0256 41.84C83.9723 40.6667 83.9456 39.6533 83.9456 38.8V34.4C83.9456 32.9067 83.6523 31.8133 83.0656 31.12C82.479 30.4267 81.679 29.9733 80.6656 29.76C79.7056 29.5467 78.639 29.44 77.4656 29.44H76.8256V25.2H96.1056V76.16C96.1056 77.76 96.399 78.96 96.9856 79.76C97.6256 80.56 98.4523 81.0933 99.4656 81.36C100.479 81.6267 101.572 81.76 102.746 81.76H103.066V86H87.5456L85.3056 79.76H84.5856C83.4123 81.8933 81.839 83.6 79.8656 84.88C77.9456 86.16 75.4123 86.8 72.2656 86.8ZM75.7056 80.8C78.8523 80.8 81.0123 79.4667 82.1856 76.8C83.359 74.08 83.9456 69.9733 83.9456 64.48C83.9456 60.96 83.679 57.9733 83.1456 55.52C82.6656 53.0667 81.839 51.2267 80.6656 50C79.4923 48.72 77.839 48.08 75.7056 48.08C73.9456 48.08 72.5056 48.72 71.3856 50C70.319 51.28 69.519 53.1467 68.9856 55.6C68.5056 58 68.2656 60.9867 68.2656 64.56C68.2656 68.1867 68.5056 71.2 68.9856 73.6C69.519 76 70.319 77.8133 71.3856 79.04C72.5056 80.2133 73.9456 80.8 75.7056 80.8ZM124.859 86.8C120.699 86.8 117.499 85.52 115.259 82.96C113.019 80.3467 111.899 76.3467 111.899 70.96V53.04C111.899 51.4933 111.712 50.32 111.339 49.52C110.965 48.6667 110.379 48.1067 109.579 47.84C108.779 47.52 107.739 47.36 106.459 47.36H106.299V43.12H124.059V68.72C124.059 71.0133 124.219 73.0133 124.539 74.72C124.912 76.3733 125.552 77.68 126.459 78.64C127.365 79.5467 128.592 80 130.139 80C131.845 80 133.232 79.52 134.299 78.56C135.365 77.5467 136.139 76.1333 136.619 74.32C137.152 72.4533 137.419 70.2933 137.419 67.84V52.48C137.419 50.9333 137.152 49.8133 136.619 49.12C136.085 48.3733 135.392 47.8933 134.539 47.68C133.685 47.4667 132.725 47.36 131.659 47.36H131.419V43.12H149.579V76.72C149.579 78.2667 149.792 79.4133 150.219 80.16C150.699 80.8533 151.339 81.3067 152.139 81.52C152.992 81.68 153.925 81.76 154.939 81.76H155.579V86H139.659L137.899 80.32H137.499C136.699 81.7067 135.819 82.8267 134.859 83.68C133.952 84.5333 132.965 85.2 131.899 85.68C130.832 86.1067 129.712 86.4 128.539 86.56C127.365 86.72 126.139 86.8 124.859 86.8Z" fill="#282828"/>
</svg>
